<svg xmlns="http://www.w3.org/2000/svg" xml:space="preserve" width="512px" height="512px" version="1.1" style="shape-rendering:geometricPrecision; text-rendering:geometricPrecision; image-rendering:optimizeQuality; fill-rule:evenodd; clip-rule:evenodd" viewBox="0 0 512 512" xmlns:xlink="http://www.w3.org/1999/xlink">
 <defs>
  <style type="text/css">
   
    .fil0 {fill:black}
   
  </style>
 </defs>
 <g id="Layer_x0020_1">
  <metadata id="CorelCorpID_0Corel-Layer"></metadata>
  <g id="_466481280">
   <g>
    <g>
     <path class="fil0" d="M286 397l-60 0c-4,0 -7,-4 -7,-8l0 -28c-4,-1 -8,-3 -12,-5l-20 20c-1,1 -3,2 -5,2 0,0 0,0 0,0 -2,0 -3,-1 -5,-2l-41 -42c-3,-3 -3,-7 0,-10l20 -20c-2,-4 -4,-8 -5,-12l-29 0c-4,0 -7,-3 -7,-7l0 -59c0,-4 3,-7 7,-7l29 0c1,-5 3,-8 5,-12l-20 -20c-3,-3 -3,-8 0,-11l41 -41c2,-2 4,-3 5,-3 0,0 0,0 0,0 2,0 4,1 5,3l20 20c4,-2 8,-4 12,-5l0 -29c0,-4 3,-7 7,-7l60 0c4,0 7,3 7,7l0 29c4,1 8,3 12,5l20 -20c3,-3 7,-3 10,0l42 41c3,3 3,8 0,11l-20 20c2,4 3,8 5,12l28 0c4,0 7,3 7,7l0 59c0,4 -3,8 -7,8l-28 0c-2,3 -3,8 -5,11l20 21c3,3 3,7 0,10l-42 42c-3,3 -7,3 -10,0l-21 -21c-3,2 -8,4 -11,5l0 29c0,3 -4,7 -7,7zm-52 -15l44 0 0 -26c0,-3 2,-6 5,-7 7,-2 13,-5 19,-8 3,-2 6,-1 9,1l19 19 31 -31 -19 -19c-2,-2 -3,-6 -1,-8 3,-7 6,-13 8,-19 1,-3 4,-6 7,-6l26 0 0 -44 -26 0c-3,0 -6,-2 -7,-6 -2,-6 -5,-12 -8,-19 -2,-3 -1,-6 1,-8l19 -19 -31 -31 -19 19c-3,2 -6,2 -9,1 -5,-3 -11,-6 -19,-8 -2,-1 -5,-4 -5,-7l0 -27 -44 0 0 27c0,3 -3,6 -5,7 -8,2 -14,4 -20,8 -3,1 -6,1 -8,-1l-19 -19 -31 31 19 19c2,2 3,5 1,8 -3,5 -6,12 -8,19 -1,3 -4,6 -7,6l-26 0 0 44 26 0c3,0 6,2 7,6 2,7 5,13 8,18 2,3 1,6 -1,9l-19 19 31 31 19 -19c2,-2 5,-3 8,-1 7,4 14,6 20,8 2,1 5,4 5,7l0 26z" id="id_101" style="fill: rgb(255, 255, 255);"></path>
    </g>
    <g>
     <path class="fil0" d="M256 327c-39,0 -71,-32 -71,-71 0,-39 32,-72 71,-72 40,0 72,33 72,72 0,39 -32,71 -72,71zm0 -128c-31,0 -57,25 -57,57 0,31 26,57 57,57 31,0 57,-26 57,-57 0,-32 -26,-57 -57,-57z" id="id_102" style="fill: rgb(255, 255, 255);"></path>
    </g>
    <g>
     <path class="fil0" d="M256 472c-4,0 -7,-3 -7,-7 0,-4 3,-8 7,-8 111,0 202,-90 202,-201 0,-62 -28,-119 -76,-158 -3,-2 -3,-7 -1,-10 3,-3 7,-4 11,-1 51,41 80,102 80,168 0,120 -97,217 -216,217zm-131 -46c-2,0 -3,-1 -5,-2 -51,-41 -80,-102 -80,-168 0,-119 97,-217 216,-217 4,0 7,4 7,8 0,4 -3,7 -7,7 -111,0 -202,91 -202,202 0,62 28,119 76,157 3,3 3,7 1,11 -2,1 -4,2 -6,2z" id="id_103" style="fill: rgb(255, 255, 255);"></path>
    </g>
    <g>
     <path class="fil0" d="M256 93c-1,0 -2,0 -4,0 -2,-2 -3,-4 -3,-7l0 -79c0,-2 1,-5 3,-6 3,-1 5,-1 8,0l65 39c3,1 4,3 4,6 0,2 -1,5 -3,6l-66 40c-2,1 -3,1 -4,1zm7 -73l0 53 45 -27 -45 -26z" id="id_104" style="fill: rgb(255, 255, 255);"></path>
    </g>
    <g>
     <path class="fil0" d="M256 512c-1,0 -2,0 -4,-1l-65 -40c-3,-2 -4,-4 -4,-7 0,-2 1,-4 4,-6l66 -39c2,-1 5,-1 7,0 2,1 4,4 4,6l0 79c0,3 -1,5 -4,7 -2,1 -3,1 -4,1zm-52 -48l45 28 0 -54 -45 26z" id="id_105" style="fill: rgb(255, 255, 255);"></path>
    </g>
   </g>
  </g>
 </g>
</svg>